<svg width="353" height="108" viewBox="0 0 353 108" fill="none" xmlns="http://www.w3.org/2000/svg">
<g clip-path="url(#clip0_3_2)">
<path d="M126.787 74.4858C119.988 73.9826 113.631 70.9273 108.991 65.9331C104.351 60.9389 101.773 54.3753 101.773 47.5595C101.773 40.7437 104.351 34.1801 108.991 29.1859C113.631 24.1917 119.988 21.1364 126.787 20.6332C130.342 20.6057 133.866 21.2853 137.156 22.6325C140.445 23.9796 143.433 25.9674 145.947 28.4801C148.46 30.9927 150.449 33.9801 151.796 37.2683C153.144 40.5565 153.824 44.0798 153.796 47.6332C153.726 54.7589 150.854 61.5708 145.8 66.5958C140.745 71.6209 133.916 74.4552 126.787 74.4858" fill="white"/>
<path d="M187.351 74.4858C180.551 73.9826 174.194 70.9273 169.554 65.9331C164.915 60.9388 162.336 54.3753 162.336 47.5595C162.336 40.7437 164.915 34.1801 169.554 29.1859C174.194 24.1917 180.551 21.1364 187.351 20.6332C194.514 20.6332 201.384 23.4778 206.449 28.5413C211.514 33.6048 214.359 40.4723 214.359 47.6332C214.359 54.794 211.514 61.6616 206.449 66.7251C201.384 71.7885 194.514 74.6332 187.351 74.6332" fill="white"/>
<path d="M242.341 58.5688H241.368L228.837 22.4017H213.888C213.888 22.4017 227.628 63.3733 228.365 65.083C229.123 67.9743 230.858 70.5142 233.277 72.2712C235.696 74.0283 238.648 74.8941 241.633 74.7216C244.592 74.6556 247.462 73.7009 249.871 71.9818C252.279 70.2628 254.115 67.8589 255.138 65.083C255.609 63.167 268.613 22.4017 268.613 22.4017H253.192L242.341 58.5688Z" fill="white"/>
<path d="M290.078 0H275.365V74.4858H290.078V0Z" fill="white"/>
<path d="M338.552 22.166V47.7216C338.564 49.3391 338.254 50.9427 337.64 52.4393C337.026 53.9358 336.121 55.2955 334.977 56.4392C333.833 57.583 332.473 58.4879 330.976 59.1014C329.479 59.715 327.875 60.0249 326.257 60.0131C322.976 60.0062 319.828 58.7163 317.486 56.4193C315.145 54.1223 313.795 51.0006 313.725 47.7216V22.166H298.983V47.9574C299.013 51.4923 299.744 54.9861 301.133 58.2371C302.522 61.488 304.541 64.4318 307.074 66.8983C309.607 69.3648 312.604 71.3053 315.891 72.6076C319.179 73.9099 322.692 74.5483 326.227 74.4858C330.507 74.5405 334.733 73.5274 338.523 71.5382V81.1769C338.534 82.7943 338.224 84.3979 337.611 85.8945C336.997 87.3911 336.092 88.7508 334.948 89.8945C333.804 91.0382 332.443 91.9432 330.946 92.5567C329.449 93.1702 327.845 93.4801 326.227 93.4684C322.946 93.4614 319.799 92.1715 317.457 89.8745C315.115 87.5776 313.765 84.4559 313.696 81.1769H298.953V81.4127C298.984 84.9476 299.715 88.4413 301.103 91.6923C302.492 94.9433 304.511 97.887 307.044 100.354C309.578 102.82 312.574 104.761 315.862 106.063C319.149 107.365 322.662 108.003 326.198 107.941C329.709 107.996 333.196 107.349 336.453 106.039C339.711 104.728 342.674 102.78 345.168 100.308C347.662 97.8371 349.637 94.8926 350.977 91.6477C352.317 88.4029 352.994 84.9231 352.97 81.4127V22.166H338.552Z" fill="white"/>
<path d="M66.5487 20.6332C62.8502 20.6158 59.1872 21.3547 55.7849 22.8044C52.3825 24.2541 49.3127 26.3841 46.764 29.0633C44.186 26.3656 41.0816 24.2255 37.643 22.7755C34.2044 21.3254 30.5047 20.5963 26.7728 20.6332C23.2616 20.5781 19.7749 21.225 16.5172 22.5357C13.2596 23.8464 10.2968 25.7946 7.80271 28.2659C5.30868 30.7371 3.33371 33.6817 1.99379 36.9265C0.653869 40.1714 -0.0239943 43.6512 5.33489e-06 47.1616V74.6332H14.4774V47.1616C14.4656 45.5442 14.7756 43.9405 15.3893 42.444C16.0031 40.9474 16.9083 39.5877 18.0524 38.444C19.1965 37.3002 20.5566 36.3953 22.0537 35.7818C23.5507 35.1682 25.1549 34.8583 26.7728 34.8701C30.0536 34.8771 33.2014 36.1669 35.5432 38.4639C37.885 40.7609 39.2348 43.8826 39.3041 47.1616V74.3974H54.2533V47.1616C54.2415 45.5442 54.5515 43.9405 55.1652 42.444C55.779 40.9474 56.6842 39.5877 57.8283 38.444C58.9724 37.3002 60.3325 36.3953 61.8295 35.7818C63.3266 35.1682 64.9308 34.8583 66.5487 34.8701C69.8294 34.8771 72.9773 36.1669 75.3191 38.4639C77.6608 40.7609 79.0107 43.8826 79.08 47.1616V74.3974H93.8227V47.0142C93.824 43.4701 93.1149 39.9617 91.7372 36.6961C90.3596 33.4306 88.3414 30.4741 85.8018 28.0012C83.2621 25.5283 80.2526 23.5892 76.9509 22.2984C73.6491 21.0076 70.1222 20.3913 66.5782 20.4858" fill="white"/>
<path d="M187.351 34.9585C184.537 34.9297 181.8 35.8733 179.603 37.6297C177.405 39.386 175.882 41.8473 175.291 44.5972H138.877C138.323 42.3228 137.14 40.2502 135.464 38.6164C133.787 36.9826 131.684 35.8535 129.396 35.3585C127.107 34.8635 124.725 35.0224 122.523 35.8171C120.321 36.6118 118.387 38.0103 116.942 39.8524C115.498 41.6945 114.601 43.9059 114.355 46.2336C114.108 48.5613 114.523 50.9113 115.55 53.0147C116.577 55.1181 118.176 56.89 120.163 58.1277C122.15 59.3653 124.446 60.0187 126.788 60.0131C129.601 60.0419 132.338 59.0983 134.535 57.342C136.733 55.5856 138.256 53.1243 138.847 50.3745H175.291C175.845 52.65 177.029 54.7236 178.707 56.3578C180.385 57.992 182.489 59.1207 184.779 59.6146C187.069 60.1085 189.452 59.9477 191.655 59.1506C193.858 58.3535 195.792 56.9523 197.235 55.1075C198.678 53.2627 199.572 51.0489 199.815 48.7196C200.058 46.3903 199.64 44.0397 198.608 41.9369C197.577 39.8342 195.974 38.0644 193.983 36.8303C191.992 35.5961 189.693 34.9474 187.351 34.9585" fill="#DC1C61"/>
</g>
<defs>
<clipPath id="clip0_3_2">
<rect width="353" height="108" fill="white"/>
</clipPath>
</defs>
</svg>
